<?xml version="1.0" encoding="UTF-8"?> <svg xmlns="http://www.w3.org/2000/svg" width="35" height="62" viewBox="0 0 35 62" fill="none"> <path d="M24.0889 32.8651C23.936 26.9018 16.7494 25.9843 13.0796 28.125C11.0919 29.3483 9.8686 31.489 10.939 34.2413C12.7738 38.6756 21.3366 36.382 23.7831 40.3576C25.4651 43.1099 23.936 46.4738 21.0308 47.5442C16.5965 49.3791 9.8686 47.85 10.0215 42.3454M33.7221 20.1738V61H1V20.1738L12.0093 3.35408C14.9145 -0.00987023 20.1134 0.448851 22.5599 3.35408L33.7221 20.1738ZM17.361 5.9535C19.043 5.9535 20.4192 7.32966 20.4192 9.01164C20.4192 10.6936 19.043 12.0698 17.361 12.0698C15.6791 12.0698 14.3029 10.6936 14.3029 9.01164C14.3029 7.32966 15.6791 5.9535 17.361 5.9535ZM17.361 52.1314V48.4616V52.1314ZM17.361 27.0547V23.3849V27.0547Z" stroke="white" stroke-width="1.1339" stroke-miterlimit="22.9256"></path> </svg> 