<?xml version="1.0" encoding="UTF-8"?> <svg xmlns="http://www.w3.org/2000/svg" width="54" height="62" viewBox="0 0 54 62" fill="none"> <path d="M51.4545 31.0002V37.8184H35.0908V22.8184H47.3635" stroke="white" stroke-miterlimit="10"></path> <path d="M51.4545 46H35.0908V61H51.4545V46Z" stroke="white" stroke-miterlimit="10"></path> <path d="M39.1816 29.6365L43.2725 33.7275L52.818 22.8184" stroke="white" stroke-miterlimit="10"></path> <path d="M51.4545 9.18182V16H35.0908V1H47.3635" stroke="white" stroke-miterlimit="10"></path> <path d="M39.1816 7.81818L43.2725 11.9091L52.818 1" stroke="white" stroke-miterlimit="10"></path> <path d="M31 48.7271H9.18182C6.86364 48.7271 5.09091 46.9544 5.09091 44.6362V36.4544C5.09091 35.7725 5.22727 34.9544 5.36364 34.6816L6.72727 32.4998C7.27273 31.6816 6.86364 30.5907 5.90909 30.4544L2.36364 29.6362C1.54545 29.6362 1 29.0907 1 28.2725V25.5453C1 24.7271 1.54545 24.1816 2.36364 24.1816H8.5C8.90909 24.1816 9.31818 24.4544 9.59091 24.7271L11.3636 27.4544C11.6364 27.8635 14.3636 29.6362 16 29.6362C16.9545 29.6362 31 29.6362 31 29.6362" stroke="white" stroke-miterlimit="10"></path> <path d="M31.0003 16C25.0003 16 20.2276 16.6818 17.5003 17.0909C16.5458 17.2273 15.1821 17.9091 14.6367 18.7273C13.9549 19.4091 10.6821 26.5 10.6821 26.5" stroke="white" stroke-miterlimit="10"></path> <path d="M9.18164 35.0908C10.9544 36.8635 13.2726 37.8181 15.7271 37.8181H18.7271" stroke="white" stroke-miterlimit="10"></path> <path d="M6.45459 47.3638V52.8183C6.45459 53.6365 7.00004 54.182 7.81823 54.182H17.3637C18.1819 54.182 18.7273 53.6365 18.7273 52.8183V48.7274" stroke="white" stroke-miterlimit="10"></path> <path d="M31.0003 43.2727H18.7275" stroke="white" stroke-miterlimit="10"></path> </svg> 