<?xml version="1.0" encoding="UTF-8"?> <svg xmlns="http://www.w3.org/2000/svg" width="62" height="53" viewBox="0 0 62 53" fill="none"> <path d="M55.7724 41.2632L54.9829 42.3684C55.2987 41.8948 55.4566 41.579 55.7724 41.2632Z" fill="#3AA2BB"></path> <path d="M1.29932 44.7369C3.82563 44.7369 6.19405 43.3158 7.29932 41.2632C8.56247 43.3158 10.773 44.7369 13.2993 44.7369C15.8256 44.7369 18.1941 43.3158 19.2993 41.2632C20.5625 43.3158 22.773 44.7369 25.2993 44.7369C27.8256 44.7369 30.1941 43.3158 31.2993 41.2632C32.5625 43.3158 34.773 44.7369 37.2993 44.7369C39.8256 44.7369 42.1941 43.3158 43.2993 41.2632C44.5625 43.3158 46.773 44.7369 49.2993 44.7369C51.8256 44.7369 54.1941 43.3158 55.2993 41.2632C56.5625 43.3158 58.773 44.7369 61.2993 44.7369" stroke="white" stroke-miterlimit="10" stroke-linecap="round"></path> <path d="M13.458 52.1578C15.9843 52.1578 18.3527 50.7367 19.458 48.6841C20.7212 50.7367 22.9317 52.1578 25.458 52.1578C27.9843 52.1578 30.3527 50.7367 31.458 48.6841C32.7212 50.7367 34.9317 52.1578 37.458 52.1578C39.9843 52.1578 42.3527 50.7367 43.458 48.6841C44.7212 50.7367 46.9317 52.1578 49.458 52.1578" stroke="white" stroke-miterlimit="10" stroke-linecap="round"></path> <path d="M38.4039 11.2629H35.0881C33.825 11.2629 32.7197 12.3682 32.7197 13.6314V20.8945H40.7724V13.6314C40.7724 12.2103 39.6671 11.2629 38.4039 11.2629Z" stroke="white" stroke-miterlimit="10" stroke-linecap="round"></path> <path d="M35.2471 8.42114H38.405" stroke="white" stroke-miterlimit="10" stroke-linecap="round"></path> <path d="M48.3521 8.42114H51.5099" stroke="white" stroke-miterlimit="10" stroke-linecap="round"></path> <path d="M51.5099 11.2629H48.1941C46.9309 11.2629 45.8257 12.3682 45.8257 13.6314V20.8945H53.8783V13.6314C53.8783 12.2103 52.9309 11.2629 51.5099 11.2629Z" stroke="white" stroke-miterlimit="10" stroke-linecap="round"></path> <path d="M7.29916 41.2632C2.72021 34.9474 2.72021 23.8948 2.72021 23.8948" stroke="white" stroke-miterlimit="10" stroke-linecap="round"></path> <path d="M55.7729 41.2635C60.3519 34.9477 60.3519 24.053 60.3519 24.053" stroke="white" stroke-miterlimit="10" stroke-linecap="round"></path> <path d="M2.72021 23.8947V9.84211H7.77285V1H22.9307V23.8947" stroke="white" stroke-miterlimit="10" stroke-linecap="round"></path> <path d="M2.72021 24.053H60.1939" stroke="white" stroke-miterlimit="10" stroke-linecap="round"></path> <path d="M12.1938 5.26294H13.6149" stroke="white" stroke-miterlimit="10" stroke-linecap="round"></path> <path d="M17.0889 5.26294H18.5099" stroke="white" stroke-miterlimit="10" stroke-linecap="round"></path> <path d="M12.1938 9.99976H13.6149" stroke="white" stroke-miterlimit="10" stroke-linecap="round"></path> <path d="M17.0889 9.99976H18.5099" stroke="white" stroke-miterlimit="10" stroke-linecap="round"></path> <path d="M12.1938 14.8948H13.6149" stroke="white" stroke-miterlimit="10" stroke-linecap="round"></path> <path d="M17.0889 14.8948H18.5099" stroke="white" stroke-miterlimit="10" stroke-linecap="round"></path> <path d="M12.1938 19.6316H13.6149" stroke="white" stroke-miterlimit="10" stroke-linecap="round"></path> <path d="M7.29932 14.8948H8.72037" stroke="white" stroke-miterlimit="10" stroke-linecap="round"></path> <path d="M7.29932 19.6316H8.72037" stroke="white" stroke-miterlimit="10" stroke-linecap="round"></path> <path d="M17.0889 19.6316H18.5099" stroke="white" stroke-miterlimit="10" stroke-linecap="round"></path> <path d="M19.4574 32.579C19.4574 30.8422 18.0363 29.4211 16.2995 29.4211C14.5627 29.4211 13.1416 30.8422 13.1416 32.579C13.1416 34.3159 14.5627 35.7369 16.2995 35.7369C18.0363 35.7369 19.4574 34.158 19.4574 32.579Z" stroke="white" stroke-miterlimit="10" stroke-linecap="round"></path> <path d="M34.6156 32.579C34.6156 30.8422 33.1945 29.4211 31.4577 29.4211C29.7209 29.4211 28.2998 30.8422 28.2998 32.579C28.2998 34.3159 29.7209 35.7369 31.4577 35.7369C33.1945 35.579 34.6156 34.158 34.6156 32.579Z" stroke="white" stroke-miterlimit="10" stroke-linecap="round"></path> <path d="M49.7733 32.579C49.7733 30.8422 48.3523 29.4211 46.6154 29.4211C44.8786 29.4211 43.4575 30.8422 43.4575 32.579C43.4575 34.3159 44.8786 35.7369 46.6154 35.7369C48.3523 35.7369 49.7733 34.158 49.7733 32.579Z" stroke="white" stroke-miterlimit="10" stroke-linecap="round"></path> </svg> 