<?xml version="1.0" encoding="UTF-8"?> <svg xmlns="http://www.w3.org/2000/svg" width="46" height="60" viewBox="0 0 46 60" fill="none"> <path fill-rule="evenodd" clip-rule="evenodd" d="M11 1.5H44.5V49H45.5V1V0.5H45H11V1.5ZM6 6.5H39.5V54H40.5V6V5.5H40H6V6.5ZM0.5 10.5H1H35H35.5V11V59V59.5H35H1H0.5V59V11V10.5ZM1.5 11.5V58.5H34.5V11.5H1.5ZM28.5 22.5H8V21.5H28.5V22.5ZM8 30H28.5V29H8V30ZM28.5 38H8V37H28.5V38ZM28 49C28 50.6569 26.6569 52 25 52C23.3431 52 22 50.6569 22 49C22 47.3431 23.3431 46 25 46C26.6569 46 28 47.3431 28 49ZM29 49C29 51.2091 27.2091 53 25 53C22.7909 53 21 51.2091 21 49C21 46.7909 22.7909 45 25 45C27.2091 45 29 46.7909 29 49Z" fill="white"></path> </svg> 