<?xml version="1.0" encoding="UTF-8"?> <svg xmlns="http://www.w3.org/2000/svg" width="62" height="62" viewBox="0 0 62 62" fill="none"> <path d="M30.8378 54.5L28.2432 53.0541C28.0811 52.8919 27.9189 52.7298 27.9189 52.4054V39.1082L27.5946 37.973V35.7027L30.8378 39.1082M30.8378 54.5V39.1082M30.8378 54.5L33.5946 53.2163C33.7567 53.0541 33.9189 52.8919 33.9189 52.5676V39.2703L34.5 35.5L30.8378 39.1082M35.2162 16.8919H26.7838M39.9189 12.0271V31.1622C39.9189 32.7838 38.6216 34.0811 37 34.0811H25C23.3784 34.0811 22.0811 32.7838 22.0811 31.1622V12.0271C22.0811 10.4055 23.3784 9.10815 25 9.10815H37C38.6216 9.10815 39.9189 10.4055 39.9189 12.0271ZM37.1621 29.7027C37.1621 30.6757 36.3513 31.4865 35.3784 31.4865C34.4054 31.4865 33.5946 30.6757 33.5946 29.7027C33.5946 28.7298 34.4054 27.919 35.3784 27.919C36.5135 27.919 37.1621 28.7298 37.1621 29.7027ZM35.2162 13C35.2162 15.5946 35.2162 18.1892 35.2162 20.7838C35.2162 21.4325 34.7297 21.919 34.0811 21.919H27.7567C27.1081 21.919 26.6216 21.4325 26.6216 20.7838C26.6216 18.1892 26.6216 15.5946 26.6216 13C26.6216 12.3514 27.1081 11.8649 27.7567 11.8649H34.0811C34.7297 12.0271 35.2162 12.5136 35.2162 13Z" stroke="white" stroke-miterlimit="22.9256"></path> <path fill-rule="evenodd" clip-rule="evenodd" d="M31 61C47.5405 61 61 47.5405 61 31C61 14.4595 47.5405 1 31 1C14.4595 1 1 14.4595 1 31C1 47.5405 14.4595 61 31 61Z" stroke="white" stroke-miterlimit="22.9256"></path> </svg> 