<?xml version="1.0" encoding="UTF-8"?> <svg xmlns="http://www.w3.org/2000/svg" width="128" height="311" viewBox="0 0 128 311" fill="none"> <path d="M62.8744 305L45.7264 295.444C44.6547 294.372 43.583 293.3 43.583 291.157V203.273L41.4395 195.771V180.767L62.8744 203.273M62.8744 305V203.273M62.8744 305L81.0942 296.516C82.1659 295.444 83.2376 294.372 83.2376 292.229V204.345L87.0783 179.427L62.8744 203.273M91.8116 56.4439H36.0807M122.892 24.2915V150.758C122.892 161.475 114.318 170.049 103.601 170.049H24.2915C13.574 170.049 5 161.475 5 150.758V24.2915C5 13.574 13.574 5 24.2915 5H103.601C114.318 5 122.892 13.574 122.892 24.2915ZM104.673 141.112C104.673 147.543 99.3139 152.901 92.8834 152.901C86.4529 152.901 81.0942 147.543 81.0942 141.112C81.0942 134.682 86.4529 129.323 92.8834 129.323C100.386 129.323 104.673 134.682 104.673 141.112ZM91.8116 30.722C91.8116 47.8699 91.8116 65.0179 91.8116 82.1659C91.8116 86.4529 88.5964 89.6681 84.3094 89.6681H42.5112C38.2242 89.6681 35.009 86.4529 35.009 82.1659C35.009 65.0179 35.009 47.8699 35.009 30.722C35.009 26.435 38.2242 23.2197 42.5112 23.2197H84.3094C88.5964 24.2915 91.8116 27.5067 91.8116 30.722Z" stroke="#F3F4F5" stroke-width="10" stroke-miterlimit="22.9256"></path> </svg> 