<?xml version="1.0" encoding="UTF-8"?> <svg xmlns="http://www.w3.org/2000/svg" width="277" height="310" viewBox="0 0 277 310" fill="none"> <path d="M78.3333 5V51.6667H38.3333V5C17.6667 5 5 23 5 45V58.3333C5 78.3333 16.3333 92.3333 31.6667 98.3333V278.333C31.6667 293 43.6667 305 58.3333 305C73 305 85 293 85 278.333V98.3333C100.333 92.3333 111.667 78.3333 111.667 58.3333V45C111.667 23 99 5 78.3333 5Z" stroke="#F3F4F5" stroke-width="10" stroke-miterlimit="10" stroke-linejoin="round"></path> <path d="M58.3325 265V278.333" stroke="#F3F4F5" stroke-width="10" stroke-miterlimit="10" stroke-linejoin="round"></path> <path d="M98.3325 231.665H231.666C242.999 231.665 251.666 222.998 251.666 211.665V171.665C251.666 168.332 250.999 164.332 250.333 162.998L243.666 152.332C240.999 148.332 242.999 142.998 247.666 142.332L264.999 138.332C268.999 138.332 271.666 135.665 271.666 131.665V118.332C271.666 114.332 268.999 111.665 264.999 111.665H234.999C232.999 111.665 230.999 112.998 229.666 114.332L220.999 127.665C219.666 129.665 206.333 138.332 198.333 138.332C193.666 138.332 98.3325 138.332 98.3325 138.332" stroke="#F3F4F5" stroke-width="10" stroke-miterlimit="10"></path> <path d="M125 71.665C154.333 71.665 177.667 74.9984 191 76.9984C195.667 77.665 202.333 80.9984 205 84.9984C207.667 88.9984 224.333 122.998 224.333 122.998" stroke="#F3F4F5" stroke-width="10" stroke-miterlimit="10"></path> <path d="M231.667 165C223 173.667 211.667 178.333 199.667 178.333H185" stroke="#F3F4F5" stroke-width="10" stroke-miterlimit="10"></path> <path d="M245 225V251.667C245 255.667 242.333 258.333 238.333 258.333H191.667C187.667 258.333 185 255.667 185 251.667V231.667" stroke="#F3F4F5" stroke-width="10" stroke-miterlimit="10"></path> <path d="M98.3325 205H184.999" stroke="#F3F4F5" stroke-width="10" stroke-miterlimit="10"></path> </svg> 