<?xml version="1.0" encoding="UTF-8"?> <svg xmlns="http://www.w3.org/2000/svg" width="307" height="40" viewBox="0 0 307 40" fill="none"> <path fill-rule="evenodd" clip-rule="evenodd" d="M280.728 16.1582V13.7203C281.297 13.6756 281.797 13.6017 282.297 13.6013C288.49 13.5935 294.683 13.5969 300.876 13.593C301.354 13.5925 301.839 13.5974 302.308 13.5206C303.357 13.35 304.175 12.3714 304.111 11.4291C304.044 10.4432 303.182 9.57288 302.135 9.47472C301.659 9.4305 301.177 9.45284 300.697 9.45284C295.504 9.45138 290.31 9.46062 285.116 9.4475C281.509 9.43827 279.592 7.14709 280.152 3.54973C280.378 2.09727 281.776 0.6108 283.308 0.255096C283.888 0.120493 284.492 0.0252462 285.085 0.0237884C291.637 0.00678071 298.188 0.0101887 304.74 0.0140762C305.09 0.0145621 305.439 0.0738461 305.895 0.11515V2.57057C305.459 2.59827 304.999 2.65318 304.539 2.65318C298.226 2.65901 291.914 2.65707 285.602 2.65852C285.202 2.65852 284.798 2.63811 284.404 2.68962C283.367 2.82422 282.542 3.74167 282.53 4.72909C282.519 5.67131 283.265 6.54162 284.292 6.71315C284.761 6.79139 285.246 6.78896 285.724 6.78944C290.918 6.79528 296.111 6.79965 301.305 6.79139C302.926 6.78896 304.388 7.15486 305.517 8.43773C306.807 9.9033 306.898 11.6682 306.289 13.3282C305.618 15.1611 304.095 16.2166 302.103 16.2268C295.191 16.2608 288.28 16.2418 281.368 16.2399C281.211 16.2399 281.054 16.201 280.728 16.1582ZM32.1585 9.63755V16.1262H29.736V6.91583C30.3364 6.87015 30.8395 6.79872 31.3427 6.79775C37.7345 6.79046 44.1269 6.79387 50.5188 6.78998C50.997 6.78998 51.4819 6.79435 51.9519 6.72C52.9548 6.56013 53.7491 5.66116 53.751 4.74906C53.7534 3.79323 52.8963 2.82816 51.8785 2.69259C51.4454 2.63476 51.0013 2.6576 50.562 2.6576C44.1298 2.65566 37.6981 2.65614 31.2664 2.65614H29.7321V0.115684C30.2818 0.0753521 30.7091 0.0175247 31.1359 0.0175247C37.7273 0.0116935 44.3197 -0.037874 50.9102 0.0612564C52.1159 0.0792359 53.4843 0.44563 54.4795 1.1099C56.7064 2.59686 56.8915 5.96292 55.043 7.92269C54.7212 8.26382 54.29 8.499 53.7936 8.86929C55.7227 11.0735 56.5961 13.3603 56.0982 16.1457H53.9884C53.7745 15.1213 53.6349 14.0926 53.3385 13.1115C52.7332 11.1085 50.8651 9.52384 48.8401 9.4976C43.4886 9.42762 38.1345 9.4699 32.782 9.47476C32.6323 9.47476 32.4832 9.55008 32.1585 9.63755ZM250.321 2.65629V0.175598C250.859 0.115342 251.316 0.0205818 251.773 0.0200958C258.365 0.0103772 264.957 0.011839 271.549 0.0162124C272.888 0.0166983 274.158 0.213983 275.248 1.13483C277.206 2.78992 277.463 5.93877 275.744 7.84606C275.426 8.19982 275.056 8.50644 274.672 8.87138C275.303 10.0328 276.085 11.0858 276.46 12.271C276.834 13.4557 276.802 14.7726 276.962 16.1497H274.612C274.395 15.1108 274.273 14.0738 273.958 13.1009C273.27 10.974 271.709 9.59688 269.571 9.53371C264.182 9.37432 258.787 9.47345 253.394 9.47588C253.246 9.47636 253.097 9.5546 252.817 9.6338V16.1307H250.355V6.90966C250.971 6.86544 251.476 6.7979 251.98 6.79742C258.372 6.79061 264.764 6.7945 271.156 6.78964C271.635 6.78964 272.12 6.79401 272.59 6.71723C273.592 6.55444 274.381 5.64964 274.376 4.73657C274.371 3.7788 273.511 2.82539 272.491 2.6903C272.097 2.63782 271.694 2.65775 271.294 2.65775C264.822 2.65629 258.35 2.65629 251.879 2.65629H250.321ZM174.466 2.6591C171.674 2.6591 168.881 2.64745 166.089 2.66348C164.409 2.6732 163.587 3.5022 163.575 5.17624C163.561 7.11609 163.565 9.05594 163.573 10.9963C163.582 12.7553 164.298 13.5698 166.01 13.5785C171.595 13.6082 177.179 13.6082 182.764 13.5775C184.388 13.5688 185.166 12.7116 185.18 11.075C185.198 9.13514 185.195 7.19481 185.182 5.25545C185.169 3.51338 184.338 2.67174 182.604 2.66251C179.891 2.64793 177.178 2.65862 174.466 2.6591ZM174.385 16.2448C171.548 16.2448 168.711 16.2618 165.875 16.2395C163.208 16.2181 161.313 14.65 161.145 11.974C160.976 9.27995 161.182 6.56359 161.158 3.85742C161.144 2.36949 163.02 0.454423 164.413 0.236725C164.964 0.150715 165.52 0.0263197 166.073 0.0243759C171.586 0.00785417 177.099 0.00931252 182.612 0.0166015C184.588 0.0190312 186.212 0.711972 187.164 2.5731C187.376 2.9876 187.553 3.47499 187.562 3.93225C187.612 6.56115 187.681 9.19345 187.602 11.8204C187.525 14.4124 185.612 16.1749 183.013 16.2429C182.934 16.2448 182.854 16.2453 182.774 16.2453C179.977 16.2453 177.181 16.2453 174.385 16.2448ZM233.85 2.65984C231.058 2.65984 228.265 2.64477 225.473 2.66566C223.88 2.67781 223.061 3.52771 223.048 5.1449C223.033 7.12508 223.036 9.10574 223.048 11.0859C223.057 12.6973 223.779 13.5588 225.332 13.569C230.997 13.6084 236.661 13.6069 242.326 13.572C243.869 13.5627 244.637 12.6851 244.652 11.1063C244.671 9.16648 244.667 7.22615 244.655 5.28631C244.644 3.52917 243.821 2.67296 242.107 2.66324C239.355 2.6472 236.602 2.65886 233.85 2.65984ZM233.858 16.2451C231.022 16.2446 228.185 16.2616 225.348 16.2393C222.681 16.2184 220.787 14.6502 220.618 11.9752C220.449 9.28068 220.655 6.56431 220.631 3.85815C220.616 2.37168 222.49 0.455639 223.885 0.236969C224.437 0.150473 224.991 0.0260778 225.545 0.02462C231.058 0.00809831 236.571 0.00906838 242.085 0.0163574C244.059 0.0187871 245.685 0.711239 246.637 2.57236C246.849 2.98687 247.025 3.47426 247.034 3.93153C247.086 6.56043 247.153 9.19273 247.075 11.8202C246.998 14.4121 245.086 16.1746 242.487 16.2426C242.407 16.2446 242.328 16.2456 242.248 16.2456C239.451 16.2456 236.655 16.2456 233.858 16.2451ZM65.1855 2.65629V0.18483C65.6781 0.121172 66.0953 0.02107 66.5126 0.0205841C72.1841 0.0118373 77.8556 -0.00856952 83.5276 0.0273895C87.2087 0.0507143 89.9929 1.71552 91.2269 5.26332C93.1569 10.8088 89.6984 15.8717 84.5823 16.1439C78.329 16.4772 72.0454 16.2323 65.7749 16.2313C65.6233 16.2313 65.4718 16.1594 65.209 16.0923V5.6268H67.6469V13.4576C68.2124 13.5154 68.5975 13.5888 68.9826 13.5898C73.8555 13.5961 78.7285 13.5728 83.601 13.5985C86.9842 13.6165 89.024 11.1261 89.224 8.45493C89.4432 5.53059 87.0384 2.64949 83.7674 2.65678C78.0954 2.66844 72.4239 2.65775 66.7524 2.65629H65.1855ZM2.49164 6.59167C2.79716 6.67865 2.94729 6.75883 3.09741 6.75932C9.36652 6.76758 15.6361 6.78118 21.9056 6.74619C22.3761 6.74376 23.0529 6.52024 23.2687 6.16891C23.6285 5.58433 23.9561 4.75387 23.8208 4.13382C23.5959 3.10704 22.7128 2.65026 21.6217 2.65268C15.591 2.6663 9.5612 2.65658 3.53094 2.66387C3.19137 2.66387 2.85231 2.74647 2.49164 2.79361V6.59167ZM2.42065 9.53448V16.1267H0V0.133614C0.521346 0.0879357 0.945349 0.0184478 1.36981 0.0184478C7.99672 0.0116447 14.6236 0.0169867 21.251 0.0126113C22.8241 0.0116414 24.2481 0.368803 25.369 1.58898C26.6956 3.03366 26.8031 4.80684 26.2208 6.46581C25.5801 8.29244 24.0798 9.38578 22.0817 9.42757C19.2884 9.48637 16.4927 9.44945 13.6984 9.4509C10.4648 9.45236 7.23073 9.44847 3.99713 9.45479C3.53094 9.45576 3.0643 9.50096 2.42065 9.53448ZM129.973 16.135V0.208542C131.326 -0.149591 132.376 -0.0353942 133.392 0.91655C136.469 3.80008 139.62 6.60343 142.745 9.43448C143.039 9.70126 143.353 9.94422 143.771 10.2922C144.195 9.98553 144.63 9.72652 145.001 9.39268C148.105 6.59808 151.227 3.82389 154.273 0.966598C155.281 0.021377 156.33 -0.141814 157.695 0.15995V16.1603H155.397V4.15578C155.262 4.07172 155.127 3.98765 154.992 3.90407C151.31 7.22688 147.628 10.5502 143.859 13.9517C140.101 10.5594 136.432 7.24923 132.764 3.93857C132.66 3.99153 132.556 4.04451 132.452 4.09747V16.135H129.973ZM121.343 13.5858V16.1335H94.9391V6.9309H121.325V9.43346H97.4955V13.5858H121.343ZM205.361 16.1749H202.934V2.67368H190.864V0.14003H217.255V2.62606H205.361V16.1749ZM94.9583 2.5351V0.121468H121.381V2.5351H94.9583ZM59.453 16.1495V0.0947418H61.7657V16.1495H59.453ZM27.8259 39.6833L31.0853 30.7516H32.6047L35.8274 39.6833H34.7614L34.0261 37.6816H29.6272L28.892 39.6833H27.8259ZM29.958 36.7314H33.7075L31.894 31.7651H31.7838L29.958 36.7314ZM52.737 40.0001C50.6784 40.0001 49.1835 38.4291 49.1835 36.25V30.7516H50.3109V36.25C50.3109 37.8463 51.3279 38.9865 52.737 38.9865C54.1461 38.9865 55.1509 37.8463 55.1509 36.25V30.7516H56.266V36.25C56.266 38.4291 54.7956 40.0001 52.737 40.0001ZM72.6242 39.6833V31.7651H69.7692V30.7516H76.6065V31.7651H73.7393V39.6833H72.6242ZM94.2513 40.0001C91.5188 40.0001 89.5828 38.0237 89.5828 35.2111C89.5828 32.4239 91.5188 30.4349 94.2513 30.4349C96.9838 30.4349 98.9199 32.4239 98.9199 35.2111C98.9199 38.0237 96.9838 40.0001 94.2513 40.0001ZM94.2513 38.9865C96.3222 38.9865 97.7925 37.4029 97.7925 35.2111C97.7925 33.0194 96.3222 31.4484 94.2513 31.4484C92.1805 31.4484 90.6979 33.0194 90.6979 35.2111C90.6979 37.4029 92.1805 38.9865 94.2513 38.9865ZM128.279 39.6833V30.7516H133.781V31.7651H129.406V34.5523H133.291V35.5659H129.406V39.6833H128.279ZM147.59 39.6833V30.7516H151.352C153.227 30.7516 154.464 31.8158 154.464 33.4628C154.464 34.9831 153.312 36.0473 151.707 36.1233H151.56L154.697 39.6833H153.288L150.298 36.1867H148.705V39.6833H147.59ZM148.705 35.1731H151.352C152.59 35.1731 153.349 34.5143 153.349 33.4628C153.349 32.4239 152.59 31.7651 151.352 31.7651H148.705V35.1731ZM172.661 40.0001C169.928 40.0001 167.992 38.0237 167.992 35.2111C167.992 32.4239 169.928 30.4349 172.661 30.4349C175.393 30.4349 177.329 32.4239 177.329 35.2111C177.329 38.0237 175.393 40.0001 172.661 40.0001ZM172.661 38.9865C174.731 38.9865 176.202 37.4029 176.202 35.2111C176.202 33.0194 174.731 31.4484 172.661 31.4484C170.59 31.4484 169.107 33.0194 169.107 35.2111C169.107 37.4029 170.59 38.9865 172.661 38.9865ZM191.359 39.6833V30.7516H193.124L195.979 38.0744H196.089L198.956 30.7516H200.708V39.6833H199.593V32.2085H199.483L196.567 39.6833H195.501L192.597 32.2212H192.486V39.6833H191.359ZM234.099 40.0001C232.04 40.0001 230.545 38.4291 230.545 36.25V30.7516H231.673V36.25C231.673 37.8463 232.69 38.9865 234.099 38.9865C235.508 38.9865 236.513 37.8463 236.513 36.25V30.7516H237.628V36.25C237.628 38.4291 236.157 40.0001 234.099 40.0001ZM255.346 40.0001C253.079 40.0001 251.682 38.7712 251.682 36.7821H252.785C252.797 38.1631 253.741 38.9865 255.358 38.9865C256.768 38.9865 257.589 38.3531 257.589 37.3522C257.589 36.1233 256.388 35.9206 255.089 35.7052C253.533 35.4518 251.817 35.0338 251.817 33.0954C251.817 31.4864 253.006 30.4349 255.089 30.4349C257.209 30.4349 258.495 31.5751 258.508 33.4628H257.429C257.429 32.1959 256.571 31.4484 255.089 31.4484C253.692 31.4484 252.932 32.0692 252.932 33.032C252.932 34.2103 254.084 34.4257 255.358 34.6284C256.927 34.8944 258.704 35.2491 258.704 37.2762C258.704 38.9485 257.466 40.0001 255.346 40.0001ZM271.998 39.6833L275.258 30.7516H276.777L280 39.6833H278.934L278.199 37.6816H273.8L273.064 39.6833H271.998ZM274.13 36.7314H277.88L276.067 31.7651H275.956L274.13 36.7314Z" fill="#F7FBFC"></path> </svg> 