<?xml version="1.0" encoding="UTF-8"?> <svg xmlns="http://www.w3.org/2000/svg" width="62" height="62" viewBox="0 0 62 62" fill="none"> <path d="M40.4778 11.6527C43.9243 15.2559 45.9608 20.1123 45.9608 25.4386C45.9608 36.718 36.8747 45.8042 25.5953 45.8042C16.0392 45.8042 8.04961 39.2245 5.8564 30.4517M10.7128 20.8956H14.9426H10.7128ZM36.248 20.8956H40.4778H36.248ZM32.8016 32.3316V33.7415C32.8016 34.0548 33.1149 34.3681 33.4282 34.3681H37.5013C37.8146 34.3681 38.1279 34.0548 38.1279 33.7415C38.1279 31.705 38.1279 30.295 38.1279 25.752C38.1279 24.9687 37.9713 24.342 37.658 23.8721C37.3446 23.5587 35.1514 20.2689 32.8016 17.4491C32.6449 17.2924 32.4882 16.9791 31.8616 16.9791C26.8486 16.6658 24.4987 16.6658 19.4856 16.9791C19.0157 16.9791 18.7023 17.2924 18.5457 17.4491C16.1958 20.2689 14.0026 23.5587 13.6893 23.8721C13.376 24.342 13.0627 24.9687 13.2193 25.752C13.2193 30.295 13.2193 31.705 13.2193 33.7415C13.2193 34.0548 13.5326 34.3681 13.846 34.3681H17.9191C18.2324 34.3681 18.5457 34.0548 18.5457 33.7415V32.3316C23.2454 32.6449 27.9452 32.6449 32.8016 32.3316ZM16.0392 27.3185L19.6423 27.7885L16.0392 27.3185ZM34.9948 27.3185L31.3916 27.7885L34.9948 27.3185ZM14.6292 22.6188C19.799 22.9321 31.0783 22.9321 36.248 22.6188H14.6292ZM44.0809 44.3942L44.3942 44.0809C45.9608 42.5144 48.4674 42.5144 50.0339 44.0809L61 55.047C60.0601 58.0235 58.0235 60.0601 55.047 61L44.0809 50.0339C42.5144 48.4674 42.5144 45.9608 44.0809 44.3942ZM25.5953 1C39.2245 1 50.1906 11.9661 50.1906 25.5953C50.1906 39.2245 39.2245 50.1906 25.5953 50.1906C11.9661 50.1906 1 39.2245 1 25.5953C1 11.9661 11.9661 1 25.5953 1Z" stroke="white" stroke-width="1.1339" stroke-miterlimit="22.9256"></path> </svg> 