<?xml version="1.0" encoding="UTF-8"?> <svg xmlns="http://www.w3.org/2000/svg" width="62" height="46" viewBox="0 0 62 46" fill="none"> <path d="M55.7826 45.3479H6.21739C3.34783 45.3479 1 44.3044 1 41.4349V38.8262H23.1739L25.7826 40.1305H36.2174L38.8261 38.8262H61V41.4349C61 44.3044 58.6522 45.3479 55.7826 45.3479Z" stroke="white" stroke-miterlimit="10" stroke-linejoin="round"></path> <path d="M4.91309 38.8261V3.6087C4.91309 2.17391 6.087 1 7.52178 1H54.4783C55.9131 1 57.087 2.17391 57.087 3.6087V38.8261" stroke="white" stroke-miterlimit="10" stroke-linejoin="round"></path> <path d="M44.0435 14.0435L42.3478 10.2609C41.8261 8.56521 40.2609 7.52173 38.5652 7.52173H31H23.4348C21.7392 7.52173 20.3044 8.56521 19.7826 10.2609L17.9565 14.0435" stroke="white" stroke-miterlimit="10"></path> <path d="M24.4785 24.4783H31.0003H37.522" stroke="white" stroke-miterlimit="10"></path> <path d="M50.5652 12.739H46.6521C46.2608 12.739 42.7391 16.6521 40.1304 16.6521H21.8695C19.2608 16.6521 15.7391 12.739 15.3478 12.739H11.4347C10.6521 12.739 10.1304 13.2608 10.1304 14.0434V15.739C10.1304 16.5216 10.6521 17.0434 11.4347 17.0434L14.0434 17.9564V19.2608C13.2608 20.0434 12.7391 21.2173 12.7391 22.3912V24.4781C12.7391 25.6521 13.2608 26.6955 14.0434 27.3477V30.9999C14.0434 31.7825 14.5652 32.3042 15.3478 32.3042H20.5652C21.3478 32.3042 21.8695 31.7825 21.8695 30.9999V28.3912H40.1304V30.9999C40.1304 31.7825 40.6521 32.3042 41.4347 32.3042H46.6521C47.4347 32.3042 47.9565 31.7825 47.9565 30.9999V27.3477C48.7391 26.6955 49.2608 25.6521 49.2608 24.4781V22.3912C49.2608 21.2173 48.7391 20.0434 47.9565 19.2608V17.9564L50.5652 17.0434C51.3478 17.0434 51.8695 16.5216 51.8695 15.739V14.0434C51.8695 13.2608 51.3478 12.739 50.5652 12.739Z" stroke="white" stroke-miterlimit="10"></path> <path d="M44.8262 19.7825C43.261 21.0868 40.9131 21.8694 38.8262 21.8694" stroke="white" stroke-miterlimit="10"></path> <path d="M17.1738 19.7825C18.739 21.0868 21.0869 21.8694 23.1738 21.8694" stroke="white" stroke-miterlimit="10"></path> <path d="M21.8697 28.3914H16.6523" stroke="white" stroke-miterlimit="10"></path> <path d="M45.3478 28.3914H40.1304" stroke="white" stroke-miterlimit="10"></path> </svg> 