<?xml version="1.0" encoding="UTF-8"?> <svg xmlns="http://www.w3.org/2000/svg" width="55" height="62" viewBox="0 0 55 62" fill="none"> <path d="M15.6667 1V10.3333H7.66667V1C3.53333 1 1 4.6 1 9V11.6667C1 15.6667 3.26667 18.4667 6.33333 19.6667V55.6667C6.33333 58.6 8.73333 61 11.6667 61C14.6 61 17 58.6 17 55.6667V19.6667C20.0667 18.4667 22.3333 15.6667 22.3333 11.6667V9C22.3333 4.6 19.8 1 15.6667 1Z" stroke="white" stroke-miterlimit="10" stroke-linejoin="round"></path> <path d="M11.6665 53V55.6667" stroke="white" stroke-miterlimit="10" stroke-linejoin="round"></path> <path d="M19.6665 46.3333H46.3332C48.5998 46.3333 50.3332 44.5999 50.3332 42.3333V34.3333C50.3332 33.6666 50.1998 32.8666 50.0665 32.5999L48.7332 30.4666C48.1998 29.6666 48.5998 28.5999 49.5332 28.4666L52.9998 27.6666C53.7998 27.6666 54.3332 27.1333 54.3332 26.3333V23.6666C54.3332 22.8666 53.7998 22.3333 52.9998 22.3333H46.9998C46.5998 22.3333 46.1998 22.5999 45.9332 22.8666L44.1998 25.5333C43.9332 25.9333 41.2665 27.6666 39.6665 27.6666C38.7332 27.6666 19.6665 27.6666 19.6665 27.6666" stroke="white" stroke-miterlimit="10"></path> <path d="M25 14.3333C30.8667 14.3333 35.5333 14.9999 38.2 15.3999C39.1333 15.5333 40.4667 16.1999 41 16.9999C41.5333 17.7999 44.8667 24.5999 44.8667 24.5999" stroke="white" stroke-miterlimit="10"></path> <path d="M46.3333 33C44.6 34.7333 42.3333 35.6667 39.9333 35.6667H37" stroke="white" stroke-miterlimit="10"></path> <path d="M49 45V50.3333C49 51.1333 48.4667 51.6667 47.6667 51.6667H38.3333C37.5333 51.6667 37 51.1333 37 50.3333V46.3333" stroke="white" stroke-miterlimit="10"></path> <path d="M19.6665 41H36.9998" stroke="white" stroke-miterlimit="10"></path> </svg> 