<?xml version="1.0" encoding="UTF-8"?> <svg xmlns="http://www.w3.org/2000/svg" width="230" height="13" viewBox="0 0 230 13" fill="none"> <path fill-rule="evenodd" clip-rule="evenodd" d="M210.546 12.1187V10.2902C210.973 10.2567 211.348 10.2013 211.723 10.2009C216.367 10.1951 221.012 10.1976 225.656 10.1947C226.015 10.1944 226.379 10.198 226.731 10.1404C227.517 10.0125 228.131 9.27851 228.083 8.57184C228.033 7.83237 227.386 7.17964 226.6 7.10602C226.244 7.07286 225.882 7.08962 225.522 7.08962C221.627 7.08853 217.732 7.09545 213.836 7.08561C211.131 7.07869 209.694 5.36031 210.113 2.66229C210.283 1.57295 211.331 0.458099 212.481 0.191322C212.916 0.0903694 213.368 0.0189346 213.813 0.0178413C218.727 0.00508552 223.641 0.0076415 228.555 0.0105571C228.817 0.0109215 229.079 0.0553845 229.421 0.0863626V1.92793C229.094 1.9487 228.749 1.98988 228.404 1.98988C223.669 1.99425 218.935 1.9928 214.201 1.99389C213.901 1.99389 213.598 1.97858 213.303 2.01721C212.525 2.11816 211.906 2.80625 211.897 3.54681C211.889 4.25348 212.449 4.9062 213.218 5.03485C213.57 5.09353 213.934 5.09171 214.293 5.09207C218.188 5.09645 222.083 5.09973 225.979 5.09353C227.194 5.09171 228.291 5.36614 229.138 6.32828C230.105 7.42746 230.173 8.75114 229.717 9.9961C229.213 11.3708 228.071 12.1624 226.577 12.17C221.393 12.1956 216.209 12.1813 211.026 12.1799C210.908 12.1799 210.79 12.1507 210.546 12.1187ZM24.1188 7.22815V12.0946H22.3019V5.18686C22.7523 5.15261 23.1296 5.09903 23.5069 5.0983C28.3009 5.09284 33.0951 5.09539 37.889 5.09247C38.2477 5.09247 38.6113 5.09575 38.9639 5.03999C39.716 4.92009 40.3117 4.24586 40.3132 3.56179C40.315 2.84492 39.6721 2.12112 38.9088 2.01944C38.584 1.97607 38.2509 1.9932 37.9214 1.9932C33.0973 1.99174 28.2735 1.9921 23.4498 1.9921H22.299V0.0867632C22.7113 0.0565139 23.0318 0.0131435 23.3519 0.0131435C28.2955 0.00877009 33.2397 -0.0284055 38.1825 0.0459422C39.0869 0.0594268 40.1131 0.334222 40.8595 0.832424C42.5297 1.94764 42.6685 4.47218 41.2822 5.94201C41.0408 6.19785 40.7175 6.37424 40.3452 6.65195C41.7919 8.30509 42.447 10.0202 42.0736 12.1092H40.4912C40.3308 11.341 40.2261 10.5694 40.0038 9.8336C39.5498 8.33134 38.1488 7.14286 36.63 7.12318C32.6164 7.0707 28.6008 7.10241 24.5864 7.10606C24.4742 7.10606 24.3624 7.16255 24.1188 7.22815ZM187.741 1.99221V0.131698C188.144 0.0865066 188.486 0.0154363 188.83 0.0150718C193.773 0.00778287 198.717 0.00887925 203.661 0.0121593C204.665 0.0125237 205.618 0.160487 206.435 0.851118C207.904 2.09243 208.097 4.45407 206.808 5.88453C206.569 6.14985 206.292 6.37982 206.004 6.65352C206.477 7.52455 207.064 8.31431 207.344 9.20321C207.625 10.0917 207.601 11.0794 207.721 12.1122H205.959C205.796 11.3331 205.704 10.5553 205.468 9.82569C204.952 8.23049 203.781 7.19764 202.178 7.15027C198.136 7.03073 194.09 7.10507 190.045 7.10689C189.934 7.10726 189.822 7.16593 189.612 7.22534V12.098H187.766V5.18224C188.228 5.14907 188.607 5.09842 188.985 5.09805C193.779 5.09295 198.573 5.09587 203.367 5.09222C203.726 5.09222 204.089 5.0955 204.442 5.03791C205.193 4.91582 205.785 4.23722 205.782 3.55242C205.778 2.83409 205.133 2.11904 204.368 2.01772C204.072 1.97836 203.77 1.99331 203.47 1.99331C198.616 1.99221 193.762 1.99221 188.909 1.99221H187.741ZM130.849 1.99432C128.755 1.99432 126.66 1.98558 124.567 1.99761C123.307 2.0049 122.69 2.62664 122.681 3.88217C122.671 5.33705 122.673 6.79194 122.68 8.24719C122.686 9.56649 123.223 10.1773 124.507 10.1839C128.696 10.2061 132.884 10.2061 137.073 10.1831C138.29 10.1766 138.874 9.53369 138.885 8.30623C138.898 6.85134 138.896 5.3961 138.886 3.94158C138.877 2.63503 138.253 2.0038 136.953 1.99688C134.918 1.98594 132.884 1.99396 130.849 1.99432ZM130.788 12.1836C128.661 12.1836 126.533 12.1964 124.406 12.1796C122.405 12.1636 120.985 10.9875 120.859 8.98046C120.732 6.95995 120.886 4.92268 120.868 2.89306C120.858 1.77712 122.264 0.340817 123.31 0.177543C123.723 0.113036 124.14 0.0197397 124.554 0.0182819C128.689 0.00589062 132.824 0.00698438 136.959 0.0124511C138.44 0.0142734 139.659 0.533978 140.373 1.92982C140.532 2.24069 140.664 2.60624 140.671 2.94918C140.709 4.92085 140.76 6.89508 140.702 8.86529C140.644 10.8093 139.209 12.1311 137.26 12.1821C137.2 12.1836 137.14 12.184 137.08 12.184C134.983 12.184 132.885 12.184 130.788 12.1836ZM175.387 1.99487C173.293 1.99487 171.198 1.98357 169.104 1.99924C167.909 2.00836 167.296 2.64578 167.286 3.85867C167.275 5.3438 167.276 6.82929 167.286 8.31443C167.293 9.52294 167.834 10.1691 168.999 10.1768C173.247 10.2063 177.496 10.2052 181.744 10.179C182.902 10.172 183.478 9.51383 183.489 8.32973C183.503 6.87485 183.5 5.41961 183.491 3.96472C183.483 2.64687 182.866 2.00471 181.58 1.99743C179.516 1.9854 177.451 1.99414 175.387 1.99487ZM175.393 12.1838C173.266 12.1834 171.138 12.1962 169.011 12.1794C167.011 12.1637 165.59 10.9877 165.463 8.98137C165.336 6.9605 165.491 4.92322 165.473 2.8936C165.462 1.77875 166.867 0.341729 167.914 0.177726C168.327 0.112854 168.743 0.0195583 169.159 0.018465C173.293 0.00607372 177.428 0.00680127 181.563 0.012268C183.044 0.0140903 184.263 0.533429 184.977 1.92927C185.136 2.24015 185.269 2.60569 185.275 2.94864C185.314 4.92031 185.365 6.89453 185.306 8.86511C185.248 10.8091 183.814 12.1309 181.865 12.182C181.805 12.1834 181.745 12.1842 181.685 12.1842C179.588 12.1842 177.491 12.1842 175.393 12.1838ZM48.889 1.99221V0.138622C49.2585 0.0908791 49.5714 0.0158024 49.8843 0.015438C54.138 0.00887793 58.3916 -0.00642713 62.6456 0.0205421C65.4064 0.0380356 67.4945 1.28664 68.4201 3.94748C69.8676 8.10658 67.2737 11.9038 63.4366 12.1079C58.7466 12.3579 54.034 12.1742 49.3311 12.1735C49.2174 12.1735 49.1038 12.1195 48.9067 12.0692V4.22009H50.7351V10.0932C51.1592 10.1366 51.448 10.1916 51.7369 10.1923C55.3916 10.1971 59.0463 10.1796 62.7006 10.1989C65.238 10.2124 66.7679 8.34457 66.9179 6.34119C67.0823 4.14793 65.2787 1.98711 62.8254 1.99258C58.5715 2.00133 54.3178 1.99331 50.0642 1.99221H48.889ZM1.86873 4.94374C2.09786 5.00898 2.21046 5.06911 2.32305 5.06948C7.02488 5.07567 11.727 5.08588 16.4292 5.05964C16.7821 5.05781 17.2896 4.89017 17.4515 4.62667C17.7213 4.18824 17.967 3.5654 17.8656 3.10036C17.6969 2.33028 17.0346 1.98769 16.2162 1.98951C11.6932 1.99972 7.17089 1.99243 2.6482 1.9979C2.39353 1.9979 2.13923 2.05985 1.86873 2.0952V4.94374ZM1.81549 7.15085V12.095H0V0.10021C0.391009 0.0659517 0.70901 0.0138358 1.02736 0.0138358C5.99753 0.00873353 10.9677 0.01274 15.9382 0.00945849C17.1181 0.00873107 18.1861 0.276601 19.0267 1.19173C20.0217 2.27524 20.1023 3.60512 19.6656 4.84935C19.185 6.21932 18.0598 7.03932 16.5612 7.07067C14.4662 7.11477 12.3695 7.08707 10.2738 7.08817C7.84861 7.08926 5.42304 7.08634 2.99784 7.09108C2.6482 7.09181 2.29822 7.1257 1.81549 7.15085ZM97.4799 12.1012V0.156406C98.4947 -0.112193 99.2817 -0.0265456 100.044 0.687411C102.351 2.85005 104.714 4.95256 107.058 7.07585C107.279 7.27593 107.515 7.45815 107.828 7.7191C108.146 7.48913 108.472 7.29488 108.75 7.0445C111.078 4.94855 113.42 2.86791 115.705 0.724947C116.46 0.0160327 117.248 -0.106361 118.271 0.119962V12.1202H116.547V3.11683C116.446 3.05378 116.345 2.99073 116.244 2.92805C113.482 5.42015 110.721 7.91262 107.894 10.4638C105.075 7.91954 102.324 5.43691 99.5727 2.95392C99.495 2.99365 99.417 3.03337 99.3389 3.0731V12.1012H97.4799ZM91.0068 10.1893V12.1001H71.2042V5.19817H90.9939V7.07508H73.1215V10.1893H91.0068ZM154.021 12.1311H152.2V2.00526H143.148V0.105022H162.941V1.96954H154.021V12.1311ZM71.2186 1.90132V0.0911005H91.0359V1.90132H71.2186ZM44.5897 12.1121V0.0710562H46.3242V12.1121H44.5897Z" fill="black"></path> </svg> 