<?xml version="1.0" encoding="UTF-8"?> <svg xmlns="http://www.w3.org/2000/svg" width="311" height="311" viewBox="0 0 311 311" fill="none"> <path d="M202.389 58.2637C219.621 76.2794 229.804 100.561 229.804 127.193C229.804 183.59 184.373 229.021 127.976 229.021C80.1958 229.021 40.248 196.123 29.282 152.258M53.564 104.478H74.7128H53.564ZM181.24 104.478H202.389H181.24ZM164.008 161.658V168.708C164.008 170.274 165.574 171.841 167.141 171.841H187.507C189.073 171.841 190.64 170.274 190.64 168.708C190.64 158.525 190.64 151.475 190.64 128.76C190.64 124.843 189.856 121.71 188.29 119.36C186.723 117.794 175.757 101.345 164.008 87.2454C163.225 86.4621 162.441 84.8956 159.308 84.8956C134.243 83.329 122.493 83.329 97.4282 84.8956C95.0783 84.8956 93.5117 86.4621 92.7285 87.2454C80.9791 101.345 70.013 117.794 68.4465 119.36C66.8799 121.71 65.3133 124.843 66.0966 128.76C66.0966 151.475 66.0966 158.525 66.0966 168.708C66.0966 170.274 67.6632 171.841 69.2298 171.841H89.5953C91.1619 171.841 92.7285 170.274 92.7285 168.708V161.658C116.227 163.225 139.726 163.225 164.008 161.658ZM80.1958 136.593L98.2115 138.943L80.1958 136.593ZM174.974 136.593L156.958 138.943L174.974 136.593ZM73.1462 113.094C98.9948 114.661 155.392 114.661 181.24 113.094H73.1462ZM220.405 221.971L221.971 220.405C229.804 212.572 242.337 212.572 250.17 220.405L305 275.235C300.3 290.117 290.117 300.3 275.235 305L220.405 250.17C212.572 242.337 212.572 229.804 220.405 221.971ZM127.976 5C196.123 5 250.953 59.8303 250.953 127.976C250.953 196.123 196.123 250.953 127.976 250.953C59.8303 250.953 5 196.123 5 127.976C5 59.8303 59.8303 5 127.976 5Z" stroke="#F3F4F5" stroke-width="10" stroke-miterlimit="22.9256"></path> </svg> 